<svg width="523" height="593" viewBox="0 0 523 593" fill="none" xmlns="http://www.w3.org/2000/svg">
<path d="M508.358 0H14C7.37258 0 2 5.37258 2 12V506.358C2 512.985 7.37258 518.358 14 518.358H508.358C514.985 518.358 520.358 512.985 520.358 506.358V12C520.358 5.37258 514.985 0 508.358 0Z" stroke="black" stroke-width="4" stroke-miterlimit="10"/>
<path d="M173.41 308.002C175.65 308.147 186.132 308.871 201.458 309.953C207.272 300.421 214.369 283.408 212.777 258.789C212.487 254.712 221.013 278.444 215.702 310.953C245.317 313.017 285.609 315.81 320.817 317.912C322.126 304.183 323.963 291.524 323.963 291.524C324.718 301.497 326.429 310.538 328.474 318.402C333.287 318.73 338.012 318.956 342.536 319.214C342.479 297.81 347.821 260.764 347.821 260.764C349.828 286.793 357.152 307.845 362.556 320.296C384.923 321.397 399.658 321.712 398.758 320.611C366.69 280.262 392.492 259.047 384.432 224.436C374.756 182.962 339.749 174.839 342.203 144.136C344.134 119.152 349.325 73.8894 318.162 62.7405C318.162 62.7405 293.738 33.4025 252.647 47.0617C201.817 63.9108 218.062 141.984 213.934 157.524C208.064 179.728 197.029 187.139 187.887 212.344C178.569 237.85 189.573 255.568 190.108 273.178C190.58 290.788 167.798 307.694 173.41 308.002Z" fill="black"/>
<path d="M400.016 315.124C395.82 307.99 392.133 300.503 390.157 292.72C387.949 284.975 389.415 277.211 391.328 269.227C393.228 261.28 395.436 253.164 396.575 244.689C397.613 236.246 397.714 227.318 395.285 218.812C393.008 210.293 388.515 202.447 382.828 195.998C377.209 189.448 370.666 184.088 364.362 178.803C358.12 173.461 351.891 168.176 347.336 161.532C342.668 154.983 340.013 147.049 339.39 138.756C338.679 147.024 340.491 155.7 344.769 163.137C348.985 170.624 355.056 176.764 361.077 182.465C367.098 188.203 373.17 193.683 378.178 199.874C383.148 206.058 387.037 212.967 388.943 220.51C390.875 228.029 391.158 235.975 390.22 243.934C389.396 251.918 387.534 259.902 386.074 268.157C385.382 272.291 384.74 276.506 384.684 280.866C384.602 285.233 385.502 289.706 386.93 293.708C389.975 301.723 394.555 308.852 400.016 315.124Z" fill="black"/>
<path d="M223.089 74.4805C218.766 83.7858 216.854 94.0035 214.928 104.026C213.192 114.118 211.952 124.273 210.826 134.39L209.046 149.49C208.442 154.536 207.586 159.261 206.101 163.866C203.194 173.121 197.576 181.055 191.272 189.096C188.208 193.179 185.099 197.439 182.501 202.088C179.896 206.725 177.757 211.67 176.253 216.779C174.894 221.957 173.913 227.047 173.347 232.288C172.755 237.516 172.793 242.896 173.485 248.137C174.158 253.397 175.404 258.392 176.411 263.287C177.436 268.169 178.009 273.152 178.078 278.072C178.38 287.843 172.787 297.325 164.614 303.34C173.592 298.552 180.45 288.995 181.243 278.205C181.626 272.957 181.324 267.742 180.645 262.589C179.991 257.442 178.934 252.497 178.6 247.608C177.82 237.919 179.506 227.928 182.256 218.585C183.784 213.973 185.678 209.519 188.119 205.309C190.529 201.081 193.48 197.124 196.563 193.097C199.595 189.045 202.76 184.88 205.497 180.325C208.228 175.776 210.568 170.875 212.091 165.729C213.588 160.588 214.368 155.228 214.815 150.144C215.337 145.023 215.658 139.926 215.979 134.843C216.658 124.682 217.193 114.54 218.143 104.448C218.986 94.3433 220.201 84.264 223.089 74.4805Z" fill="black"/>
<path d="M224.02 241.455C161.053 312.299 84.8047 458.392 101.887 486.314C120.919 517.414 211.764 416.533 208.637 411.966C205.982 408.084 235.515 320.692 256.964 256.788C278.387 192.94 239.592 223.933 224.02 241.455Z" fill="#D3766A"/>
<path d="M224.02 241.455C161.053 312.299 84.8047 458.392 101.887 486.314C120.919 517.414 211.764 416.533 208.637 411.966C205.982 408.084 235.515 320.692 256.964 256.788C278.387 192.94 239.592 223.933 224.02 241.455Z" fill="black" stroke="white" stroke-width="2" stroke-miterlimit="10"/>
<path d="M232.495 330.099C226.354 348.741 220.717 366.225 216.439 380.199C206.705 380.633 178.242 379.06 148.665 350.641C157.555 334.874 167.181 319.038 177.103 303.913C184.54 311.746 202.584 327.016 232.495 330.099Z" fill="black" stroke="white" stroke-width="1.25833" stroke-miterlimit="10"/>
<path d="M396.485 517.616H164.426L180.074 411.609L180.125 411.266L179.953 410.965L179.951 410.966C179.953 410.965 179.953 410.965 179.953 410.965L179.952 410.964L179.949 410.959L179.936 410.937L179.885 410.845C179.839 410.763 179.77 410.64 179.68 410.477C179.501 410.151 179.24 409.666 178.911 409.036C178.253 407.776 177.327 405.938 176.262 403.632C174.129 399.017 171.439 392.538 169.206 385.077C164.727 370.11 162.153 351.403 169.347 335.86L169.347 335.859C173.017 327.907 187.552 304.295 204.632 280.142C213.163 268.079 222.312 255.906 231.033 245.512C239.767 235.103 248.025 226.536 254.776 221.634C267.318 212.534 282.213 212.1 295.534 215.993C308.877 219.894 320.485 228.097 326.329 236.016C343.438 259.204 356.211 291.739 367.109 337.596C377.952 383.22 386.919 441.942 396.485 517.616Z" fill="white" stroke="black" stroke-width="2"/>
<path d="M209.398 270.233C204.195 277.374 199.143 284.616 194.179 291.927C195.531 289.083 196.897 286.245 198.23 283.395C198.325 283.188 198.023 283.018 197.922 283.225C196.072 286.799 194.374 290.423 192.719 294.066C186.081 303.894 179.639 313.853 173.422 323.945C170.786 328.23 168.364 332.59 166.583 337.309C164.859 341.876 163.79 346.683 163.224 351.521C162.657 356.372 162.613 361.248 162.991 366.112C163.375 371.126 163.985 376.09 165.105 380.992C166.376 386.522 168.106 392.027 170.346 397.249C171.447 399.81 172.623 402.358 173.888 404.85C175.046 407.121 177.399 411.758 177.367 411.934C176.895 414.501 176.411 416.3 176.084 418.458C175.75 420.654 175.423 422.856 175.09 425.052C174.429 429.45 168.716 472.246 168.074 476.65C166.797 485.389 165.696 494.135 164.608 502.899C163.979 507.926 163.651 512.997 162.947 518.018C162.915 518.219 163.224 518.301 163.261 518.093C163.985 513.721 165.067 509.411 165.86 505.057C166.653 500.697 167.464 496.33 168.282 491.97C169.937 483.162 176.298 435.874 177.676 427.015C178.059 424.568 178.437 422.114 178.821 419.666C179.198 417.232 179.852 413.96 179.758 411.494C179.758 411.494 171.912 395.368 168.861 384.068C167.584 379.324 166.275 374.385 165.74 369.497C165.218 364.684 165.168 359.839 165.564 355.02C165.96 350.2 166.866 345.412 168.345 340.807C169.868 336.05 172.057 331.627 174.505 327.28C179.626 318.176 185.075 309.241 190.592 300.37C196.853 290.316 203.188 280.3 209.662 270.384C209.776 270.214 209.511 270.082 209.398 270.233Z" fill="black"/>
<path d="M101.886 486.314C117.961 506.939 158.908 508.895 261.531 523.511C275.731 525.53 316.967 429.148 301.911 426.21C282.948 422.511 208.561 412.255 203.025 412.186C156.347 411.658 90.9828 472.322 101.886 486.314Z" fill="black"/>
<path d="M281.349 422.63C281.349 422.63 324.724 426.896 346.821 436.189C376.41 448.634 396.827 471.561 404.805 481.69C421.459 502.824 447.11 565.439 430.361 575.971C415.205 585.509 392.215 520.183 392.215 520.183C392.215 520.183 426.643 582.917 406.283 591.046C385.923 599.175 363.55 521.819 363.55 521.819C363.55 521.819 397.481 587.069 375.152 592.128C358.284 595.953 334.074 527.034 334.074 527.034C334.074 527.034 362.845 583.326 345.669 588.001C326.687 593.172 300.35 530.96 300.35 530.96C254.679 535.503 231.073 518.981 215.683 505.234C211.965 501.905 281.349 422.63 281.349 422.63Z" fill="white" stroke="black" stroke-width="2.5" stroke-miterlimit="10"/>
<path d="M381.708 497.721C386.018 504.944 390.435 512.224 394.084 519.811C397.739 527.393 401.131 535.107 404.063 542.996C411.254 562.343 412.732 575.581 412.55 574.776C408.284 555.674 395.625 528.33 391.97 520.743C388.321 513.18 385.055 505.429 381.413 497.854C381.324 497.659 381.608 497.552 381.708 497.721Z" fill="black"/>
<path d="M354.088 510.418C359.19 519.881 364.607 529.085 369.295 538.775C373.957 548.42 377.543 557.977 381.532 567.911C381.84 568.679 381.324 568.591 380.985 567.836C376.599 558.065 371.792 549.37 367.3 539.649C362.821 529.966 358.681 520.032 353.849 510.519C353.779 510.374 354.012 510.273 354.088 510.418Z" fill="black"/>
<path d="M328.431 517.056C336.975 531.117 342.914 546.733 348.369 562.198C348.64 562.966 347.992 562.783 347.671 562.016C341.322 546.884 336.453 534.968 327.94 517.358C327.808 517.074 328.248 516.754 328.431 517.056Z" fill="black"/>
<path d="M310.36 423.984C311.042 424.056 311.636 424.119 312.136 424.173L229.199 521.765C228.996 521.75 228.732 521.73 228.411 521.705C227.565 521.639 226.322 521.538 224.735 521.399C221.56 521.121 217.008 520.689 211.503 520.076C200.492 518.851 185.677 516.9 170.454 514.003C155.223 511.104 139.622 507.265 127.019 502.271C120.718 499.774 115.199 497.001 110.859 493.933C106.512 490.861 103.413 487.54 101.853 483.97C98.7601 476.893 101.467 468.834 108.189 460.534C114.885 452.265 125.371 444.02 137.189 436.758C148.995 429.502 162.068 423.267 173.882 418.996C185.738 414.71 196.187 412.455 202.8 413.031C216.474 414.223 244.274 417.058 268.665 419.596C280.858 420.865 292.196 422.059 300.486 422.936C304.631 423.375 308.014 423.734 310.36 423.984Z" fill="black" stroke="white" stroke-width="2"/>
<path d="M158.429 425.203C165.061 420.673 183.904 409.908 202.886 412.035C203.1 412.06 203.106 412.362 202.893 412.368C187.327 412.846 165.382 421.611 158.599 425.474C158.417 425.574 158.266 425.316 158.429 425.203Z" fill="black"/>
<path d="M211.764 505.617C244.971 470.447 274.536 428.443 280.211 421.491C280.482 421.164 279.915 420.768 279.664 421.114C274.454 428.223 235.458 472.561 211.166 505.202C210.883 505.579 211.449 505.957 211.764 505.617Z" fill="black"/>
<path d="M344.009 257.625C411.871 343.978 437.471 499.105 399.803 511.198C365.388 522.246 223.838 486.824 181.671 472.504C169.289 468.295 207.536 372.007 220.786 376.493C236.799 381.91 324.341 402.654 326.04 402.692C329.676 402.773 310.222 307.266 301.873 263.992C290.246 203.693 318.527 225.191 344.009 257.625Z" fill="white" stroke="black" stroke-width="1.25833" stroke-miterlimit="10"/>
<path d="M107.631 340.31C100.464 348.439 106.265 358.046 106.265 358.046C106.265 358.046 97.9037 360.28 93.6443 367.421C88.7682 375.6 99.4515 386.831 99.4515 386.831C99.4515 386.831 91.4548 390.845 87.7175 398.835C83.8356 407.134 92.9962 420 92.9962 420C92.9962 420 87.6043 427.827 89.3282 437.057C92.2727 452.836 115.093 461.789 129.545 467.628C143.99 473.467 190.442 476.499 199.237 477.972L237.516 385.566C237.516 385.566 180.18 340.945 162.217 336.497C147.079 332.747 115.671 331.187 107.631 340.31Z" fill="white" stroke="black" stroke-width="2.5" stroke-miterlimit="10"/>
<path d="M107.517 356.826C124.561 356.952 140.643 362.117 156.982 366.358C157.347 366.452 157.19 367.018 156.831 366.924C140.63 362.52 123.756 361.387 107.417 357.631C106.957 357.53 107.058 356.826 107.517 356.826Z" fill="black"/>
<path d="M100.244 385.742C104.101 385.887 107.895 387.303 111.544 388.448C115.476 389.681 119.377 390.983 123.265 392.342C131.048 395.067 138.768 397.967 146.4 401.094C146.739 401.232 146.607 401.786 146.249 401.66C138.491 398.961 130.689 396.375 122.818 394.003C118.88 392.814 114.935 391.663 110.978 390.537C107.297 389.486 103.333 388.687 99.9483 386.837C99.4575 386.56 99.6652 385.723 100.244 385.742Z" fill="black"/>
<path d="M93.3297 420.107C96.6831 420.101 100.269 421.925 103.371 423.083C106.888 424.398 110.418 425.694 113.954 426.971C121.019 429.519 128.091 432.067 135.238 434.37C135.597 434.483 135.446 435.05 135.087 434.936C127.808 432.634 120.503 430.432 113.243 428.06C109.675 426.896 106.121 425.713 102.572 424.511C99.5521 423.492 95.6639 422.554 93.1913 420.453C93.0466 420.34 93.1598 420.107 93.3297 420.107Z" fill="black"/>
<path d="M324.775 398.778C325.87 398.124 305.535 305.945 298.715 257.839C291.895 209.739 313.381 214.357 344.292 255.479C377.405 299.527 436.364 418.767 415.941 507.058C409.329 535.647 204.491 495.594 204.491 495.594L232.093 377.865C232.086 377.871 323.076 399.791 324.775 398.778Z" fill="black" stroke="white" stroke-width="2" stroke-miterlimit="10"/>
<path d="M408.24 390.039C374.831 399.842 338.61 394.865 323.825 392.084C321.685 380.514 316.501 355.441 311.216 328.343C346.317 332.231 370.138 327.223 383.149 322.863C392.655 343.412 401.564 366.338 408.24 390.039Z" fill="black" stroke="white" stroke-width="2" stroke-miterlimit="10"/>
<path d="M231.299 483.489C243.757 442.499 250.627 397.526 252.383 389.775C252.465 389.41 251.867 389.316 251.798 389.693C250.47 397.388 237.044 447.929 230.651 483.401C230.582 483.81 231.18 483.886 231.299 483.489Z" fill="black"/>
<path d="M363.279 412.4C359.328 411.72 254.754 382.269 231.884 378.727C231.526 378.67 231.846 377.469 232.224 377.538C302.489 389.932 360.222 408.719 364.645 410.487C369.898 412.57 370.647 413.665 363.279 412.4Z" fill="black"/>
<path d="M323.762 399.716C323.838 399.515 316.866 364.218 315.633 362.016C314.369 359.733 311.625 354.661 310.505 352.296C308.24 347.527 306.277 342.651 304.195 337.819C304.019 337.422 304.623 337.108 304.799 337.51C307.051 342.185 309.706 346.665 312.38 351.088C313.714 353.258 315.042 355.454 316.376 357.606C316.476 357.751 309.939 323.115 309.027 317.037C308.951 316.591 309.442 316.465 309.581 316.842C311.544 322.964 325.253 392.342 327.128 400.024C327.128 400.031 325.832 400.005 323.762 399.716Z" fill="black"/>
<path d="M246.67 502.912C239.844 501.024 212.475 496.601 205.818 495.645C206.473 493.235 208.417 483.439 208.234 480.677C208.215 480.419 207.825 480.262 207.668 480.494C206.114 482.772 203.446 494.821 202.654 497.664C202.503 498.205 239.523 502.855 246.613 503.233C246.815 503.239 246.871 502.968 246.67 502.912Z" fill="black"/>
<path d="M237.51 229.394C237.51 229.394 240.259 256.48 262.714 260.701C285.169 264.917 327.134 235.421 327.134 235.421C327.134 235.421 310.279 212.74 279.834 212.671C250.546 212.595 237.51 229.394 237.51 229.394Z" fill="black" stroke="white" stroke-width="2" stroke-miterlimit="10"/>
<path d="M301.986 221.825C300.784 225.896 279.569 251.541 260.769 249.578C254.648 248.929 256.699 215.357 256.699 215.357L256.284 212.847L250.501 177.67L292.8 153.818L298.897 150.691C298.897 150.691 299.847 160.418 300.904 172.549C300.954 173.109 301.011 173.675 301.055 174.279C301.13 174.965 301.212 175.606 301.256 176.248C301.439 178.06 301.615 179.904 301.753 181.753C301.867 183.156 301.98 184.522 302.043 186C302.143 187.485 302.213 188.92 302.313 190.404C302.993 205.014 302.471 220.088 301.986 221.825Z" fill="white"/>
<path d="M300.904 173.543C289.372 200.622 266.646 210.626 256.29 213.847L250.508 178.671L292.807 154.819L298.904 151.692C298.897 151.686 299.841 161.413 300.904 173.543Z" fill="white" stroke="black" stroke-width="2.5" stroke-miterlimit="10"/>
<path d="M209.845 111.998C193.386 172.367 227.682 189.039 240.699 192.575C252.521 195.784 293.178 205.209 315.784 146.866C338.396 88.5238 315.533 61.7905 288.887 53.02C262.248 44.2494 226.31 51.6295 209.845 111.998Z" fill="white" stroke="black" stroke-width="2.5" stroke-miterlimit="10"/>
<path d="M231.589 100.188C233.055 100.365 234.439 100.283 235.911 100.308C237.566 100.339 238.887 100.528 240.34 99.5907C241.121 99.0874 241.391 97.7535 240.976 96.9482C240.001 95.0796 237.981 94.5385 235.987 94.419C233.822 94.2931 232.123 94.7524 230.368 96.017C228.657 97.2502 229.651 99.9556 231.589 100.188Z" fill="black"/>
<path d="M274.611 106.216C273.214 105.732 272.006 105.046 270.679 104.423C269.175 103.718 267.911 103.316 267.017 101.831C266.539 101.038 266.885 99.7168 267.609 99.182C269.301 97.9299 271.358 98.3326 273.202 99.1065C275.203 99.9433 276.53 101.101 277.549 103.014C278.531 104.863 276.448 106.852 274.611 106.216Z" fill="black"/>
<path d="M260.814 125.512C260.883 125.361 261.09 125.789 261.04 125.959C259.889 130.061 259.253 134.956 262.657 137.253C262.764 137.322 262.701 137.53 262.563 137.473C258.158 135.705 259.064 129.212 260.814 125.512Z" fill="black"/>
<path d="M265.576 122.109C272.352 123.247 269.571 136.718 263.299 135.661C257.114 134.623 259.895 121.152 265.576 122.109Z" fill="black"/>
<path d="M268.074 123.367C269.094 124.374 269.968 125.953 271.359 126.387C272.969 126.89 274.498 125.733 275.851 124.6C275.989 124.481 276.084 124.625 276.046 124.802C275.549 127.387 274.014 129.835 271.17 129.646C268.571 129.476 267.231 126.815 267.124 124.091C267.099 123.581 267.665 122.958 268.074 123.367Z" fill="black"/>
<path d="M235.962 117.283C235.962 117.119 235.59 117.409 235.559 117.585C234.791 121.775 233.206 126.45 229.141 127.016C229.016 127.035 228.984 127.243 229.129 127.255C233.86 127.601 235.905 121.379 235.962 117.283Z" fill="black"/>
<path d="M233.181 112.13C226.593 110.173 223.164 123.493 229.274 125.305C235.276 127.092 238.705 113.772 233.181 112.13Z" fill="black"/>
<path d="M230.18 112.294C228.946 112.728 227.575 113.741 226.298 113.502C224.813 113.225 224.108 111.507 223.536 109.884C223.479 109.714 223.34 109.802 223.29 109.978C222.567 112.508 222.724 115.377 225.045 116.49C227.159 117.509 229.362 115.748 230.62 113.37C230.846 112.929 230.677 112.118 230.18 112.294Z" fill="black"/>
<path d="M250.149 157.071C248.985 157.895 247.765 159.091 246.217 158.978C244.732 158.864 243.122 157.933 241.863 157.197C241.737 157.122 241.58 157.247 241.649 157.386C242.486 159.173 244.619 160.55 246.626 160.519C248.583 160.488 249.791 158.996 250.527 157.329C250.627 157.096 250.319 156.952 250.149 157.071Z" fill="black"/>
<path d="M236.037 138.222C236.037 138.222 233.822 144.249 233.174 147.181C233.118 147.458 233.797 147.741 234.779 148.018C234.823 148.043 234.848 148.068 234.892 148.049C239.894 149.987 245.5 149.339 249.571 145.803C249.835 145.558 249.526 145.174 249.224 145.3C244.738 147.294 240.309 147.093 235.697 146.162C235.666 145.306 239.844 135.963 239.384 135.831C237.811 135.34 234.414 135.743 232.394 135.881C236.647 123.191 242.908 111.287 246.953 98.5841C247.092 98.1311 246.456 97.8417 246.23 98.2255C238.793 110.243 233.571 124.739 228.839 137.731C228.235 139.348 234.754 138.467 236.037 138.222Z" fill="black"/>
<path d="M235.943 147.093C235.943 147.093 237.711 151.56 241.133 153.913C242.392 154.788 243.845 155.385 245.525 155.385C248.986 155.398 249.854 152.453 249.942 149.761C250.017 147.546 249.533 145.489 249.533 145.489C249.533 145.489 243.638 148.647 235.943 147.093Z" fill="black"/>
<path d="M245.527 154.886H245.525C244.113 154.886 242.865 154.431 241.751 153.723C242.344 152.422 243.464 151.453 244.852 150.849C246.236 150.248 247.862 150.022 249.42 150.194C249.341 151.353 249.098 152.474 248.573 153.325C248.003 154.248 247.083 154.891 245.527 154.886Z" fill="white" stroke="black"/>
<path d="M312.418 145.853C305.982 143.588 294.097 120.68 302.641 88.9074C302.641 88.9074 296.941 117.969 297.878 122.744C298.822 127.513 291.253 109.871 297.784 84.1509C297.784 84.1509 280.733 90.2979 267.722 90.2161C254.711 90.1406 247.375 87.9134 246.765 86.7934C246.154 85.6735 265.476 85.1765 271.856 81.024C271.856 81.024 235.553 86.7305 220.459 83.6224C218.71 83.2638 226.751 47.5523 253.849 39.1907C280.953 30.8291 312.5 57.2981 319.528 69.4788C319.528 69.4788 330.481 74.38 338.05 94.8216C345.632 115.263 319.352 148.294 312.418 145.853Z" fill="black"/>
<path d="M303.075 147.181C303.075 147.181 319.999 130.407 327.851 136.781C335.697 143.154 320.541 169.177 309.606 171.127C298.677 173.077 296.67 162.998 296.67 162.998L303.075 147.181Z" fill="white" stroke="black" stroke-width="2.5" stroke-miterlimit="10"/>
<path d="M323.322 144.13C323.491 144.142 323.479 144.381 323.328 144.413C315.621 146.017 310.638 151.988 306.737 158.405C309.354 156.14 312.525 155.209 315.621 158.399C315.784 158.569 315.551 158.827 315.356 158.745C312.531 157.581 310.317 157.707 307.901 159.702C306.189 161.111 304.849 163.049 303.49 164.792C303.037 165.37 301.942 164.817 302.32 164.125C302.345 164.074 302.383 164.024 302.408 163.967C303.887 154.781 313.324 143.268 323.322 144.13Z" fill="black"/>
</svg>
