<svg width="56" height="56" viewBox="0 0 56 56" fill="none" xmlns="http://www.w3.org/2000/svg">
<path d="M49.2333 25.7833L30.2166 6.76665C29.6333 6.18331 28.8166 5.83331 27.9999 5.83331C27.1833 5.83331 26.3666 6.18331 25.7833 6.76665L21.6999 10.85L26.4833 15.6333C26.9499 15.4 27.4166 15.2833 27.9999 15.2833C29.9833 15.2833 31.4999 16.8 31.4999 18.7833C31.4999 19.3666 31.3833 19.8333 31.1499 20.3L35.8166 24.9666C36.2833 24.7333 36.7499 24.6166 37.3333 24.6166C39.3166 24.6166 40.8333 26.1333 40.8333 28.1166C40.8333 30.1 39.3166 31.6166 37.3333 31.6166C35.3499 31.6166 33.8333 30.1 33.8333 28.1166C33.8333 27.5333 33.9499 27.0666 34.1833 26.6L29.5166 21.9333C29.3999 21.9333 29.2833 22.05 29.1666 22.05V34.1833C30.5666 34.65 31.4999 35.9333 31.4999 37.45C31.4999 39.4333 29.9833 40.95 27.9999 40.95C26.0166 40.95 24.4999 39.4333 24.4999 37.45C24.4999 35.9333 25.4333 34.65 26.8333 34.1833V21.9333C25.4333 21.4666 24.4999 20.1833 24.4999 18.6666C24.4999 18.0833 24.6166 17.6166 24.8499 17.15L20.0666 12.3666L6.76659 25.7833C6.18325 26.3666 5.83325 27.1833 5.83325 28C5.83325 28.8166 6.18325 29.6333 6.76659 30.2166L25.7833 49.2333C26.3666 49.8167 27.1833 50.1666 27.9999 50.1666C28.8166 50.1666 29.6333 49.8167 30.2166 49.2333L49.2333 30.2166C49.8166 29.6333 50.1666 28.8166 50.1666 28C50.1666 27.1833 49.8166 26.3666 49.2333 25.7833Z" fill="black"/>
</svg>
