<svg width="56" height="56" viewBox="0 0 56 56" fill="none" xmlns="http://www.w3.org/2000/svg">
<g clip-path="url(#clip0_1537_712)">
<circle cx="28" cy="28" r="28" fill="white"/>
<path d="M36.1877 47.6657C34.0813 49.707 31.1594 51 28.0339 51C24.7725 51 21.8509 49.707 19.6765 47.5293L25.1803 42.0177C25.9275 42.7663 26.8789 43.1744 28.0339 43.1744C29.1211 43.1744 30.1402 42.6981 30.8877 42.0177L42.0309 30.8581C42.7784 30.1095 43.1862 29.1567 43.1862 28C43.1862 26.9112 42.7107 25.8905 42.0309 25.1419C41.2837 24.3936 40.3324 23.9852 39.1774 23.9852C38.0221 23.9852 37.071 24.4615 36.3235 25.1419L25.1803 36.37C23.074 38.4795 20.0843 39.8407 16.8226 39.8407C13.5613 39.8407 10.6397 38.4795 8.46523 36.37C6.35886 34.2602 5 31.2661 5 28C5 24.7338 6.29142 21.8076 8.46554 19.63L19.6087 8.47034C21.7151 6.36087 24.7048 5 27.9664 5C31.2278 5 34.1494 6.29301 36.3238 8.47065L30.82 13.9823C30.0728 13.2337 29.1214 12.8256 27.9664 12.8256C26.8111 12.8256 25.8601 13.3019 25.1126 13.9823L13.9691 25.1419C13.2216 25.8905 12.8138 26.8433 12.8138 28C12.8138 29.0888 13.2893 30.1095 13.9691 30.8581C14.7163 31.6064 15.6676 32.0148 16.8226 32.0148C17.9098 32.0148 18.929 31.5385 19.6765 30.8581L30.8197 19.6981C32.926 17.5887 35.9157 16.2278 39.1774 16.2278C42.4387 16.2278 45.3603 17.5208 47.5348 19.6984C49.6411 21.8073 51 24.8014 51 28.0679C51 31.334 49.7086 34.2599 47.5345 36.4376L36.1877 47.6657Z" stroke="black" stroke-width="3" stroke-linecap="round" stroke-linejoin="round"/>
</g>
<defs>
<clipPath id="clip0_1537_712">
<rect width="56" height="56" fill="white"/>
</clipPath>
</defs>
</svg>
